<svg width="671" height="344" viewBox="0 0 671 344" fill="none" xmlns="http://www.w3.org/2000/svg">
	<path d="M412.5 160.8H424.2C424.6 160.8 424.8 161 424.8 161.3V164.3C424.8 164.7 424.6 164.8 424.2 164.8H408.5C408.2 164.8 408 164.6 408 164.3V139.2C408 138.8 408.2 138.7 408.5 138.7H423.6C424 138.7 424.2 138.9 424.2 139.2V142.2C424.2 142.5 424 142.7 423.6 142.7H412.4V149.5H422.7C423.1 149.5 423.2 149.7 423.2 150V153C423.2 153.4 423 153.5 422.7 153.5H412.4V160.8H412.5Z" fill="white"/>
	<path d="M433.3 157.5C433.3 158.9 433.7 159.9 434.4 160.6C435.1 161.2 436.1 161.6 437.5 161.6C438.2 161.6 438.9 161.5 439.5 161.3C440.1 161.1 440.6 160.9 441.1 160.6V149.7C440.7 149.5 440.1 149.4 439.5 149.3C438.9 149.2 438.3 149.2 437.6 149.2C436.3 149.2 435.3 149.5 434.5 150.1C433.8 150.7 433.4 151.8 433.4 153.4V157.5H433.3ZM429 153.5C429 152.1 429.2 150.9 429.6 149.9C430 148.9 430.6 148.1 431.4 147.4C432.2 146.7 433 146.3 434.1 145.9C435.1 145.6 436.2 145.4 437.4 145.4C438.6 145.4 439.9 145.5 441.2 145.7C442.5 145.9 443.7 146.2 444.8 146.7C445.1 146.8 445.2 147.1 445.2 147.3V171.2C445.2 171.6 445 171.7 444.7 171.7H441.6C441.2 171.7 441.1 171.5 441.1 171.2V164.4C440.5 164.6 439.9 164.8 439.3 165C438.7 165.1 438 165.2 437.2 165.2C436 165.2 435 165 434 164.7C433 164.3 432.2 163.8 431.5 163.1C430.8 162.4 430.2 161.6 429.8 160.6C429.4 159.6 429.2 158.6 429.2 157.4V153.5H429Z" fill="white"/>
	<path d="M465.9 145.9C466.3 145.9 466.4 146.1 466.4 146.4V163.2C466.4 163.5 466.3 163.7 466 163.9C465 164.4 463.8 164.7 462.6 165C461.4 165.3 460.1 165.4 458.8 165.4C457.6 165.4 456.4 165.2 455.4 164.9C454.4 164.6 453.5 164.1 452.7 163.4C452 162.7 451.4 161.9 451 160.8C450.6 159.8 450.4 158.5 450.4 157V146.4C450.4 146.1 450.6 145.9 450.9 145.9H454.1C454.4 145.9 454.6 146.1 454.6 146.4V157C454.6 157.9 454.7 158.6 454.9 159.2C455.1 159.8 455.4 160.2 455.7 160.6C456.1 160.9 456.5 161.2 457 161.3C457.5 161.4 458.1 161.5 458.8 161.5C459.4 161.5 460 161.5 460.6 161.4C461.2 161.3 461.7 161.2 462.1 161.1V146.4C462.1 146.1 462.3 145.9 462.6 145.9H465.9Z" fill="white"/>
	<path d="M475.5 157.5C475.5 159 475.8 160 476.3 160.6C476.8 161.2 477.7 161.5 479 161.5C479.6 161.5 480.3 161.3 481.1 161C481.9 160.7 482.5 160.2 483.1 159.6V149.6C482.6 149.5 482.1 149.4 481.4 149.3C480.8 149.2 480.2 149.2 479.6 149.2C479.1 149.2 478.6 149.3 478.1 149.4C477.6 149.6 477.2 149.8 476.8 150.1C476.4 150.4 476.1 150.8 475.9 151.3C475.7 151.8 475.6 152.4 475.6 153.1V157.5H475.5ZM483.5 162.9C482.9 163.7 482.1 164.2 481.1 164.6C480.2 165 479.2 165.2 478.2 165.2C477.3 165.2 476.4 165.1 475.5 164.8C474.7 164.5 473.9 164 473.3 163.4C472.7 162.8 472.1 162 471.8 161C471.4 160 471.2 158.8 471.2 157.4V153.2C471.2 151.9 471.4 150.7 471.9 149.7C472.4 148.7 473 147.9 473.7 147.3C474.5 146.7 475.4 146.2 476.4 145.9C477.4 145.6 478.5 145.4 479.6 145.4C480.8 145.4 482 145.5 483.2 145.7C484.4 145.9 485.6 146.2 486.8 146.7C487.1 146.8 487.2 147 487.2 147.3V164.3C487.2 164.7 487 164.8 486.7 164.8H484.2C483.9 164.8 483.7 164.6 483.6 164.3L483.5 162.9Z" fill="white"/>
	<path d="M500.8 165.2C500.2 165.3 499.5 165.3 498.7 165.3C496.7 165.3 495.2 164.7 494.2 163.4C493.2 162.2 492.6 160.4 492.6 158.2V139.2C492.6 138.8 492.8 138.7 493.1 138.7H496.2C496.6 138.7 496.7 138.9 496.7 139.2V158C496.7 159.2 496.9 160.1 497.3 160.6C497.7 161.1 498.3 161.4 499.1 161.4C499.3 161.4 499.5 161.4 499.8 161.4C500 161.4 500.3 161.4 500.5 161.3C500.9 161.3 501 161.5 501 161.8V164.5C501 164.6 501 164.8 500.9 164.9C501.1 165.1 501 165.2 500.8 165.2Z" fill="white"/>
	<path d="M505.3 164.9C504.9 164.9 504.8 164.7 504.8 164.4V146.4C504.8 146.1 505 145.9 505.3 145.9H508.5C508.8 145.9 509 146.1 509 146.4V164.3C509 164.7 508.8 164.8 508.5 164.8H505.3V164.9ZM509.3 140.9C509.3 141.6 509.1 142.2 508.6 142.6C508.2 143.1 507.6 143.3 506.9 143.3C506.2 143.3 505.6 143.1 505.2 142.6C504.7 142.1 504.5 141.6 504.5 140.9C504.5 140.2 504.7 139.6 505.2 139.2C505.7 138.8 506.2 138.5 506.9 138.5C507.6 138.5 508.2 138.7 508.6 139.2C509 139.6 509.3 140.2 509.3 140.9Z" fill="white"/>
	<path d="M519.3 160.6C519.8 161.1 520.5 161.4 521.4 161.4C521.6 161.4 521.8 161.4 522.1 161.4C522.4 161.4 522.7 161.4 522.9 161.3C523.3 161.3 523.5 161.5 523.5 161.8V164.6C523.5 164.7 523.5 164.9 523.4 165C523.3 165.1 523.2 165.2 523 165.2C522.7 165.2 522.3 165.2 522 165.3C521.6 165.3 521.3 165.3 521.1 165.3C520.1 165.3 519.3 165.2 518.4 164.9C517.6 164.6 516.9 164.2 516.3 163.7C515.7 163.2 515.2 162.5 514.9 161.6C514.5 160.7 514.4 159.7 514.4 158.5V141.8C514.4 141.5 514.6 141.3 514.9 141.3H517.7C518 141.3 518.2 141.5 518.2 141.8L518.5 146.2H522.4C522.8 146.2 522.9 146.4 522.9 146.7V149.4C522.9 149.7 522.7 149.9 522.4 149.9H518.5V158.3C518.6 159.3 518.8 160 519.3 160.6Z" fill="white"/>
	<path d="M539 146.4C539 146.1 539.2 145.9 539.5 145.9H542.6C543 145.9 543.1 146.1 543.1 146.4V163.6C543.1 166.4 542.4 168.6 541.1 170C539.8 171.4 537.7 172.1 534.9 172.1C533.3 172.1 532 171.9 530.9 171.5C529.8 171.1 528.7 170.5 527.8 169.8C527.5 169.6 527.5 169.4 527.7 169.1L529.3 166.9C529.5 166.6 529.7 166.5 530 166.7C530.7 167.2 531.5 167.6 532.3 167.9C533.1 168.2 534 168.4 535 168.4C535.6 168.4 536.2 168.3 536.7 168.2C537.2 168.1 537.6 167.8 538 167.4C538.3 167 538.6 166.5 538.8 165.9C539 165.3 539 164.5 539 163.6C538.4 163.8 537.8 164 537.1 164.1C536.4 164.2 535.8 164.3 535.1 164.3C534.1 164.3 533.2 164.1 532.3 163.8C531.4 163.5 530.5 163 529.8 162.4C529.1 161.8 528.5 161 528 160.1C527.5 159.2 527.3 158.1 527.3 156.8V146.4C527.3 146.1 527.5 145.9 527.8 145.9H531C531.3 145.9 531.5 146.1 531.5 146.4V156.6C531.5 157.3 531.6 157.9 531.8 158.4C532 158.9 532.3 159.3 532.7 159.6C533.1 159.9 533.5 160.1 534 160.2C534.5 160.3 535 160.4 535.6 160.4C536.2 160.4 536.8 160.4 537.4 160.2C538 160.1 538.5 159.9 538.9 159.7V146.4H539Z" fill="white"/>
	<path d="M566.5 142.1C566.1 142 565.5 142 564.9 142C563.9 142 563.2 142.3 562.7 142.9C562.2 143.5 561.9 144.3 561.9 145.4V146.2H566.1C566.5 146.2 566.6 146.4 566.6 146.7V149.3C566.6 149.7 566.4 149.8 566.1 149.8H561.9V164.2C561.9 164.6 561.7 164.7 561.4 164.7H558.3C557.9 164.7 557.8 164.5 557.8 164.2V145.2C557.8 144 558 143 558.3 142.1C558.6 141.2 559.1 140.5 559.7 139.9C560.3 139.3 561 138.9 561.8 138.6C562.6 138.3 563.4 138.2 564.3 138.2C565.2 138.2 566 138.2 566.5 138.3C566.8 138.3 567 138.5 567 138.9V141.4C566.9 141.9 566.8 142.1 566.5 142.1Z" fill="white"/>
	<path d="M574.1 157.9C574.1 159.1 574.4 160 575.1 160.6C575.8 161.2 576.8 161.5 578.1 161.5C579.4 161.5 580.4 161.2 581.1 160.6C581.8 160 582.1 159.1 582.1 157.9V153C582.1 151.8 581.8 150.9 581.1 150.2C580.4 149.6 579.4 149.2 578.1 149.2C576.8 149.2 575.8 149.5 575.1 150.2C574.4 150.8 574.1 151.8 574.1 153V157.9ZM586.5 157.9C586.5 159 586.3 160.1 585.9 161C585.5 161.9 584.9 162.7 584.2 163.3C583.5 163.9 582.6 164.4 581.6 164.8C580.6 165.1 579.4 165.3 578.2 165.3C576.9 165.3 575.8 165.1 574.8 164.8C573.8 164.5 572.9 164 572.2 163.3C571.5 162.7 570.9 161.9 570.5 161C570.1 160.1 569.9 159.1 569.9 157.9V153C569.9 151.9 570.1 150.8 570.5 149.9C570.9 149 571.5 148.2 572.2 147.5C572.9 146.8 573.8 146.3 574.8 146C575.8 145.6 577 145.5 578.2 145.5C579.5 145.5 580.6 145.7 581.6 146C582.6 146.4 583.5 146.9 584.2 147.5C584.9 148.2 585.5 149 585.9 149.9C586.3 150.8 586.5 151.9 586.5 153V157.9Z" fill="white"/>
	<path d="M591.9 164.9C591.5 164.9 591.4 164.7 591.4 164.4V147.5C591.4 147.2 591.5 147 591.8 146.9C592.7 146.4 593.7 146.1 594.9 145.9C596 145.7 597.1 145.6 598.2 145.6C598.8 145.6 599.3 145.6 600 145.7C600.6 145.7 601.3 145.8 602 145.9C602.3 145.9 602.5 146.1 602.5 146.4V149C602.5 149.4 602.3 149.5 601.9 149.4C601.4 149.3 600.9 149.3 600.4 149.3C599.9 149.3 599.4 149.3 598.9 149.3C598.2 149.3 597.6 149.3 597.1 149.4C596.5 149.5 596.1 149.6 595.7 149.8V164.4C595.7 164.8 595.5 164.9 595.1 164.9H591.9V164.9Z" fill="white"/>
	<path d="M411 198.3C411 199.9 411.4 201 412.1 201.6C412.8 202.2 413.9 202.6 415.2 202.6C415.8 202.6 416.5 202.6 417.1 202.5C417.7 202.4 418.2 202.3 418.7 202.1V191.2C418.3 190.9 417.7 190.7 417.1 190.5C416.5 190.3 415.8 190.2 415.1 190.2C413.8 190.2 412.8 190.5 412 191.1C411.3 191.7 410.9 192.7 410.9 194.1V198.3H411ZM418.6 180.3C418.6 179.9 418.8 179.8 419.1 179.8H422.2C422.6 179.8 422.7 180 422.7 180.3V204.4C422.7 204.7 422.6 204.9 422.3 205C421.2 205.4 420 205.7 418.7 206C417.4 206.2 416.1 206.3 414.9 206.3C413.7 206.3 412.6 206.1 411.6 205.8C410.6 205.5 409.7 205 408.9 204.3C408.1 203.6 407.6 202.8 407.1 201.8C406.7 200.8 406.5 199.6 406.5 198.2V194.2C406.5 193 406.7 191.9 407.1 191C407.5 190 408.1 189.2 408.8 188.6C409.5 187.9 410.3 187.4 411.3 187C412.3 186.6 413.3 186.5 414.5 186.5C415.2 186.5 415.9 186.6 416.6 186.7C417.3 186.8 417.9 187 418.4 187.3V180.3H418.6Z" fill="white"/>
	<path d="M428.9 205.9C428.5 205.9 428.4 205.7 428.4 205.4V187.5C428.4 187.2 428.6 187 428.9 187H432.1C432.4 187 432.6 187.2 432.6 187.5V205.4C432.6 205.8 432.4 205.9 432.1 205.9H428.9ZM432.8 182C432.8 182.7 432.6 183.3 432.1 183.7C431.7 184.2 431.1 184.4 430.4 184.4C429.7 184.4 429.1 184.2 428.7 183.7C428.2 183.2 428 182.7 428 182C428 181.3 428.2 180.7 428.7 180.3C429.2 179.9 429.7 179.6 430.4 179.6C431.1 179.6 431.7 179.8 432.1 180.3C432.6 180.7 432.8 181.3 432.8 182Z" fill="white"/>
	<path d="M452.3 200.3C452.3 201.3 452.1 202.2 451.7 203C451.3 203.8 450.7 204.4 450.1 204.9C449.4 205.4 448.6 205.8 447.6 206C446.7 206.2 445.6 206.4 444.5 206.4C443.3 206.4 442 206.2 440.7 205.9C439.4 205.5 438.2 204.9 437 204.1C436.7 203.9 436.7 203.7 436.9 203.4L438.3 201C438.5 200.7 438.7 200.6 439 200.9C439.8 201.5 440.7 202 441.7 202.3C442.7 202.6 443.6 202.8 444.6 202.8C445.6 202.8 446.4 202.6 447 202.3C447.7 201.9 448 201.4 448 200.7C448 200.3 447.9 200 447.7 199.8C447.5 199.6 447.2 199.4 446.9 199.2C446.6 199 446.2 198.9 445.8 198.8C445.4 198.7 445 198.6 444.6 198.5C443.9 198.4 443.1 198.2 442.3 198C441.4 197.8 440.6 197.4 439.9 197C439.1 196.5 438.5 196 438 195.2C437.5 194.5 437.2 193.6 437.2 192.5C437.2 191.5 437.4 190.6 437.9 189.9C438.3 189.2 438.9 188.6 439.7 188.1C440.4 187.6 441.3 187.3 442.2 187.1C443.1 186.9 444.1 186.8 445.1 186.8C446.1 186.8 447.2 186.9 448.2 187.2C449.2 187.5 450.3 187.9 451.4 188.5C451.7 188.7 451.8 188.9 451.6 189.2L450.2 191.5C450 191.8 449.8 191.8 449.5 191.7C448.8 191.3 448.1 191 447.3 190.8C446.5 190.6 445.7 190.5 444.9 190.5C443.8 190.5 443 190.7 442.4 191C441.8 191.4 441.6 191.9 441.6 192.5C441.6 192.9 441.7 193.2 441.9 193.4C442.1 193.7 442.4 193.9 442.7 194C443.1 194.2 443.5 194.3 444 194.4C444.5 194.5 445.1 194.6 445.7 194.8C446.5 194.9 447.2 195.1 448 195.3C448.8 195.5 449.5 195.8 450.2 196.3C450.9 196.7 451.4 197.3 451.8 197.9C452.1 198.4 452.3 199.2 452.3 200.3Z" fill="white"/>
	<path d="M460.3 198.6C460.3 200.1 460.6 201.1 461.1 201.7C461.6 202.3 462.5 202.6 463.8 202.6C464.4 202.6 465.1 202.4 465.9 202.1C466.7 201.8 467.3 201.3 467.9 200.7V190.7C467.4 190.6 466.9 190.5 466.2 190.4C465.6 190.3 465 190.3 464.4 190.3C463.9 190.3 463.4 190.4 462.9 190.5C462.4 190.7 462 190.9 461.6 191.2C461.2 191.5 460.9 191.9 460.7 192.4C460.5 192.9 460.4 193.5 460.4 194.2V198.6H460.3ZM468.3 204C467.7 204.8 466.9 205.3 465.9 205.7C465 206.1 464 206.3 463 206.3C462.1 206.3 461.2 206.2 460.3 205.9C459.5 205.6 458.7 205.1 458.1 204.5C457.5 203.9 456.9 203.1 456.6 202.1C456.2 201.1 456 199.9 456 198.5V194.3C456 193 456.2 191.8 456.7 190.8C457.2 189.8 457.8 189 458.5 188.4C459.3 187.8 460.2 187.3 461.2 187C462.2 186.7 463.3 186.5 464.4 186.5C465.6 186.5 466.8 186.6 468 186.8C469.2 187 470.4 187.3 471.6 187.8C471.9 187.9 472 188.1 472 188.4V205.4C472 205.8 471.8 205.9 471.5 205.9H469C468.7 205.9 468.5 205.7 468.4 205.4L468.3 204Z" fill="white"/>
	<path d="M485.2 202.5C486.5 202.5 487.5 202.2 488.3 201.6C489 201 489.4 199.9 489.4 198.3V194.2C489.4 192.8 489 191.8 488.3 191.2C487.6 190.6 486.6 190.2 485.2 190.2C484.5 190.2 483.8 190.3 483.3 190.5C482.7 190.7 482.2 190.9 481.7 191.2V202C482.1 202.2 482.7 202.3 483.3 202.4C483.9 202.5 484.5 202.5 485.2 202.5ZM481.7 187.3C482.3 187.1 482.9 186.9 483.5 186.7C484.2 186.6 484.9 186.5 485.6 186.5C486.7 186.5 487.8 186.7 488.8 187C489.8 187.4 490.6 187.9 491.3 188.6C492 189.3 492.6 190.1 493 191C493.4 192 493.6 193 493.6 194.2V198.2C493.6 199.6 493.4 200.8 493 201.8C492.6 202.8 492 203.6 491.2 204.3C490.5 205 489.6 205.4 488.5 205.8C487.5 206.1 486.3 206.3 485.2 206.3C484 206.3 482.8 206.2 481.4 206C480.1 205.8 478.9 205.4 477.8 205C477.5 204.9 477.4 204.7 477.4 204.4V180.3C477.4 179.9 477.6 179.8 477.9 179.8H481C481.4 179.8 481.5 180 481.5 180.3V187.3H481.7Z" fill="white"/>
	<path d="M506.6 206.2C506 206.3 505.3 206.3 504.5 206.3C502.5 206.3 501 205.7 500 204.4C499 203.2 498.4 201.4 498.4 199.2V180.2C498.4 179.8 498.6 179.7 498.9 179.7H502C502.4 179.7 502.5 179.9 502.5 180.2V199C502.5 200.2 502.7 201.1 503.1 201.6C503.5 202.1 504.1 202.4 504.9 202.4C505.1 202.4 505.3 202.4 505.6 202.4C505.8 202.4 506.1 202.4 506.3 202.3C506.7 202.3 506.8 202.5 506.8 202.8V205.5C506.8 205.6 506.8 205.8 506.7 205.9C506.9 206.1 506.8 206.2 506.6 206.2Z" fill="white"/>
	<path d="M521.7 194C521.7 192.7 521.3 191.7 520.6 191.1C519.9 190.5 519 190.2 517.9 190.2C516.8 190.2 515.9 190.5 515.2 191.1C514.5 191.7 514.1 192.6 514.1 194V195H521.6V194H521.7ZM525.9 197.7C525.9 198 525.7 198.2 525.4 198.2H514.3V199.2C514.3 200.3 514.7 201.2 515.4 201.7C516.1 202.3 517 202.5 518.2 202.5C519.3 202.5 520.3 202.3 521.1 202C521.9 201.7 522.6 201.3 523.3 200.8C523.6 200.6 523.8 200.6 524 200.9L525.5 202.9C525.7 203.2 525.7 203.4 525.4 203.7C524.4 204.5 523.3 205.1 522.1 205.5C520.9 206 519.5 206.2 517.9 206.2C516.9 206.2 515.9 206.1 514.9 205.8C513.9 205.5 513.1 205.1 512.3 204.5C511.6 203.9 511 203.2 510.5 202.3C510 201.4 509.8 200.4 509.8 199.1V194C509.8 192.7 510 191.5 510.5 190.6C511 189.6 511.6 188.9 512.3 188.3C513.1 187.7 513.9 187.3 514.9 187C515.9 186.7 516.8 186.6 517.8 186.6C518.8 186.6 519.8 186.7 520.7 187C521.6 187.3 522.5 187.7 523.2 188.3C523.9 188.9 524.5 189.7 525 190.6C525.5 191.6 525.7 192.7 525.7 194V197.7H525.9Z" fill="white"/>
	<path d="M534.2 198.3C534.2 199.9 534.6 201 535.3 201.6C536 202.2 537.1 202.6 538.4 202.6C539 202.6 539.7 202.6 540.3 202.5C540.9 202.4 541.4 202.3 541.9 202.1V191.2C541.5 190.9 540.9 190.7 540.3 190.5C539.7 190.3 539 190.2 538.3 190.2C537 190.2 536 190.5 535.2 191.1C534.5 191.7 534.1 192.7 534.1 194.1V198.3H534.2ZM541.8 180.3C541.8 179.9 542 179.8 542.3 179.8H545.4C545.8 179.8 545.9 180 545.9 180.3V204.4C545.9 204.7 545.8 204.9 545.5 205C544.4 205.4 543.2 205.7 541.9 206C540.6 206.2 539.3 206.3 538.1 206.3C536.9 206.3 535.8 206.1 534.8 205.8C533.8 205.5 532.9 205 532.1 204.3C531.3 203.6 530.8 202.8 530.3 201.8C529.9 200.8 529.7 199.6 529.7 198.2V194.2C529.7 193 529.9 191.9 530.3 191C530.7 190 531.3 189.2 532 188.6C532.7 187.9 533.5 187.4 534.5 187C535.5 186.6 536.5 186.5 537.7 186.5C538.4 186.5 539.1 186.6 539.8 186.7C540.5 186.8 541.1 187 541.6 187.3V180.3H541.8Z" fill="white"/>
	<path d="M568 202.6C569.3 202.6 570.3 202.3 571.1 201.6C571.8 201 572.2 199.9 572.2 198.5V194.4C572.2 192.8 571.8 191.7 571.1 191.1C570.4 190.5 569.3 190.2 568 190.2C567.4 190.2 566.7 190.2 566.1 190.3C565.5 190.4 565 190.5 564.5 190.7V201.5C565 201.8 565.5 202.1 566.1 202.2C566.7 202.5 567.3 202.6 568 202.6ZM560.7 187.8C561.8 187.4 563 187.1 564.3 186.8C565.6 186.6 566.9 186.5 568.1 186.5C569.3 186.5 570.4 186.7 571.4 187C572.4 187.3 573.3 187.8 574.1 188.5C574.8 189.2 575.4 190 575.9 191C576.3 192 576.5 193.2 576.5 194.6V198.6C576.5 199.8 576.3 200.9 575.9 201.8C575.5 202.8 574.9 203.6 574.2 204.3C573.5 205 572.6 205.5 571.6 205.9C570.6 206.3 569.5 206.4 568.4 206.4C567.7 206.4 567 206.3 566.3 206.2C565.7 206.1 565 205.9 564.5 205.6V212.4C564.5 212.8 564.3 212.9 564 212.9H560.9C560.5 212.9 560.4 212.7 560.4 212.4V188.4C560.3 188.1 560.4 187.9 560.7 187.8Z" fill="white"/>
	<path d="M592.5 194C592.5 192.7 592.1 191.7 591.4 191.1C590.7 190.5 589.8 190.2 588.7 190.2C587.6 190.2 586.7 190.5 586 191.1C585.3 191.7 584.9 192.6 584.9 194V195H592.4V194H592.5ZM596.7 197.7C596.7 198 596.5 198.2 596.2 198.2H585V199.2C585 200.3 585.4 201.2 586.1 201.7C586.8 202.2 587.7 202.5 588.9 202.5C590 202.5 591 202.3 591.8 202C592.6 201.7 593.3 201.3 594 200.8C594.3 200.6 594.5 200.6 594.7 200.9L596.2 202.9C596.4 203.2 596.4 203.4 596.1 203.7C595.1 204.5 594 205.1 592.8 205.5C591.6 206 590.2 206.2 588.6 206.2C587.6 206.2 586.6 206.1 585.6 205.8C584.6 205.5 583.8 205.1 583 204.5C582.3 203.9 581.7 203.2 581.2 202.3C580.7 201.4 580.5 200.4 580.5 199.1V194C580.5 192.7 580.7 191.5 581.2 190.6C581.7 189.6 582.3 188.9 583 188.3C583.8 187.7 584.6 187.3 585.6 187C586.6 186.7 587.5 186.6 588.5 186.6C589.5 186.6 590.5 186.7 591.4 187C592.3 187.3 593.2 187.7 593.9 188.3C594.6 188.9 595.2 189.7 595.7 190.6C596.2 191.6 596.4 192.7 596.4 194V197.7H596.7Z" fill="white"/>
	<path d="M605 199C605 200.2 605.3 201.1 606 201.7C606.7 202.3 607.7 202.6 609 202.6C610.3 202.6 611.3 202.3 612 201.7C612.7 201.1 613 200.2 613 199V194.1C613 192.9 612.7 192 612 191.3C611.3 190.7 610.3 190.3 609 190.3C607.7 190.3 606.7 190.6 606 191.3C605.3 191.9 605 192.9 605 194.1V199ZM617.4 199C617.4 200.1 617.2 201.2 616.8 202.1C616.4 203 615.8 203.8 615.1 204.4C614.4 205 613.5 205.5 612.5 205.9C611.5 206.2 610.3 206.4 609.1 206.4C607.8 206.4 606.7 206.2 605.7 205.9C604.7 205.6 603.8 205.1 603.1 204.4C602.4 203.8 601.8 203 601.4 202.1C601 201.2 600.8 200.2 600.8 199V194.1C600.8 193 601 191.9 601.4 191C601.8 190.1 602.4 189.3 603.1 188.6C603.8 187.9 604.7 187.4 605.7 187.1C606.7 186.7 607.9 186.6 609.1 186.6C610.4 186.6 611.5 186.8 612.5 187.1C613.5 187.5 614.4 188 615.1 188.6C615.8 189.3 616.4 190.1 616.8 191C617.2 191.9 617.4 193 617.4 194.1V199Z" fill="white"/>
	<path d="M630 202.6C631.3 202.6 632.3 202.3 633.1 201.6C633.8 201 634.2 199.9 634.2 198.5V194.4C634.2 192.8 633.8 191.7 633.1 191.1C632.4 190.5 631.3 190.2 630 190.2C629.4 190.2 628.7 190.2 628.1 190.3C627.5 190.4 627 190.5 626.5 190.7V201.5C627 201.8 627.5 202.1 628.1 202.2C628.7 202.5 629.3 202.6 630 202.6ZM622.7 187.8C623.8 187.4 625 187.1 626.3 186.8C627.6 186.6 628.9 186.5 630.1 186.5C631.3 186.5 632.4 186.7 633.4 187C634.4 187.3 635.3 187.8 636.1 188.5C636.8 189.2 637.4 190 637.9 191C638.3 192 638.5 193.2 638.5 194.6V198.6C638.5 199.8 638.3 200.9 637.9 201.8C637.5 202.8 636.9 203.6 636.2 204.3C635.5 205 634.6 205.5 633.6 205.9C632.6 206.3 631.5 206.4 630.4 206.4C629.7 206.4 629 206.3 628.3 206.2C627.7 206.1 627 205.9 626.5 205.6V212.4C626.5 212.8 626.3 212.9 626 212.9H622.9C622.5 212.9 622.4 212.7 622.4 212.4V188.4C622.3 188.1 622.4 187.9 622.7 187.8Z" fill="white"/>
	<path d="M651.4 206.2C650.8 206.3 650.1 206.3 649.3 206.3C647.3 206.3 645.8 205.7 644.8 204.4C643.8 203.2 643.2 201.4 643.2 199.2V180.2C643.2 179.8 643.4 179.7 643.7 179.7H646.8C647.2 179.7 647.3 179.9 647.3 180.2V199C647.3 200.2 647.5 201.1 647.9 201.6C648.3 202.1 648.9 202.4 649.7 202.4C649.9 202.4 650.1 202.4 650.4 202.4C650.6 202.4 650.9 202.4 651.1 202.3C651.5 202.3 651.6 202.5 651.6 202.8V205.5C651.6 205.6 651.6 205.8 651.5 205.9C651.6 206.1 651.5 206.2 651.4 206.2Z" fill="white"/>
	<path d="M666.5 194C666.5 192.7 666.1 191.7 665.4 191.1C664.7 190.5 663.8 190.2 662.7 190.2C661.6 190.2 660.7 190.5 660 191.1C659.3 191.7 658.9 192.6 658.9 194V195H666.4V194H666.5ZM670.6 197.7C670.6 198 670.4 198.2 670.1 198.2H659V199.2C659 200.3 659.4 201.2 660.1 201.7C660.8 202.3 661.7 202.5 662.9 202.5C664 202.5 665 202.3 665.8 202C666.6 201.7 667.3 201.3 668 200.8C668.3 200.6 668.5 200.6 668.7 200.9L670.2 202.9C670.4 203.2 670.4 203.4 670.1 203.7C669.1 204.5 668 205.1 666.8 205.5C665.6 206 664.2 206.2 662.6 206.2C661.6 206.2 660.6 206.1 659.6 205.8C658.6 205.5 657.8 205.1 657 204.5C656.3 203.9 655.7 203.2 655.2 202.3C654.7 201.4 654.5 200.4 654.5 199.1V194C654.5 192.7 654.7 191.5 655.2 190.6C655.7 189.6 656.3 188.9 657 188.3C657.8 187.7 658.6 187.3 659.6 187C660.6 186.7 661.5 186.6 662.5 186.6C663.5 186.6 664.5 186.7 665.4 187C666.4 187.3 667.2 187.7 667.9 188.3C668.6 188.9 669.2 189.7 669.7 190.6C670.2 191.6 670.4 192.7 670.4 194V197.7H670.6Z" fill="white"/>
	<path d="M188.3 147.9V204.1C188.3 205.2 188.9 205.8 189.9 205.8H201.7C202.7 205.8 203.3 205.2 203.3 204.1V186.2H214.8C229.7 186.2 238.9 177.1 238.9 162.3C238.9 147.9 229.9 138.5 214.8 138.5H197.6C191.6 138.5 188.3 141.7 188.3 147.9ZM203.3 172.2V152.5H212.7C219.7 152.5 223.3 155.8 223.3 162.4C223.3 169 219.7 172.3 212.7 172.3H203.3V172.2ZM147.8 151.6C155.8 151.6 159.7 155.8 159.7 164.2V180C159.7 188.4 155.8 192.6 147.8 192.6C139.8 192.6 135.9 188.4 135.9 180V164.2C135.8 155.9 139.8 151.6 147.8 151.6ZM147.8 206.9C165.1 206.9 175.2 197.1 175.2 180.3V163.9C175.2 147.1 165.1 137.3 147.8 137.3C130.5 137.3 120.4 147.1 120.4 163.9V180.3C120.4 197.1 130.5 206.9 147.8 206.9ZM381.9 165.4C382.9 165.4 383.5 164.8 383.5 163.8V153.7C383.5 152.7 382.9 152.1 381.9 152.1H336.6C335.6 152.1 335 152.7 335 153.7V163.9C335 164.9 335.6 165.5 336.6 165.5H381.9V165.4ZM381.9 192.1C382.9 192.1 383.5 191.5 383.5 190.5V180.4C383.5 179.4 382.9 178.8 381.9 178.8H336.6C335.6 178.8 335 179.4 335 180.4V190.6C335 191.6 335.6 192.2 336.6 192.2H381.9V192.1ZM26.6 206.9C43.5 206.9 52.3 198.3 52.3 185.6C52.3 175.7 47.6 168.2 32.1 165.6C19.3 163.4 17.5 161.1 17.5 157.1C17.5 154.1 20.2 151 27.7 151C31.9 151 37.1 152.2 42.4 155C43.3 155.5 44.1 155.5 44.8 154.5L49.6 145.4C50.2 144.4 50 143.5 49.2 143C45.3 140.7 37.9 137.4 27 137.4C12.8 137.3 1.99996 145.1 1.99996 157.8C1.99996 170.4 10.6 175.7 25.4 178.4C34.2 180 37 181.7 37 186.3C37 190.2 33.2 192.9 26.2 192.9C19.9 192.9 14.1 190.9 8.29996 188.2C7.39996 187.7 6.49996 187.7 5.99996 188.7L1.29996 197.7C0.799958 198.6 0.599958 199.4 1.69996 200C5.79996 202.8 15.1 206.9 26.6 206.9ZM90 137.3C72.7 137.3 62.6 147.1 62.6 163.9V180.3C62.6 197.1 72.7 206.9 90 206.9C97.7 206.9 104.9 204.7 111.3 200.2C112 199.7 112.1 199 111.4 198.1L105.4 189.1C104.8 188.2 104.1 188.1 103.1 188.7C99.2 191.3 94.7 192.6 89.9 192.6C82.2 192.6 78.3 188.4 78.3 180V164.2C78.3 155.8 82.2 151.6 89.9 151.6C94.2 151.6 98.6 152.8 101.9 155C102.8 155.6 103.6 155.4 104.3 154.5L110.2 145.5C110.9 144.7 110.7 143.9 109.7 143.3C104.4 139.5 97.2 137.3 90 137.3ZM250.2 196.5C250.2 202.6 253.5 205.8 259.5 205.8H293.3C294.4 205.8 295 205.2 295 204.1V193.7C295 192.7 294.4 192.1 293.3 192.1H265.4V178.8H288.7C289.8 178.8 290.4 178.2 290.4 177.2V167C290.4 166 289.8 165.4 288.7 165.4H265.4V152.2H291.8C292.9 152.2 293.5 151.6 293.5 150.6V140.2C293.5 139.1 292.9 138.5 291.8 138.5H259.5C253.5 138.5 250.2 141.7 250.2 147.8V196.5Z" fill="white"/>
</svg>
