<svg width="477" height="344" viewBox="0 0 477 344" fill="none" xmlns="http://www.w3.org/2000/svg">
	<path d="M44 248L0 171.5L44 95H132L176 171.5L132 248H44Z" fill="#231F20"/>
	<path d="M52.25 233L17 171.5L52.25 110H122.75L158 171.5L122.75 233H52.25Z" fill="#FDB913"/>
	<path d="M53.4748 231.437H122.525L157.033 171.5L122.491 111.563H53.4748L18.9325 171.5L53.4748 231.437ZM123.957 234H52.0085L16 171.5L16.3751 170.851L52.0085 109H123.991L124.367 109.649L160 171.5L123.957 234Z" fill="white"/>
	<path d="M77.8704 143.017H98.0614L108.839 116L138 175.214L106.452 193.85L96.322 227H79.678L69.5825 193.782L38 175.214L67.1269 116L77.8704 143.017Z" fill="#231F20"/>
	<path d="M81.9853 180L67 164V180H81.9853ZM109 164V180H93.9804L109 164Z" fill="white"/>
	<path d="M261.2 150L247.5 197.2C247.1 198.7 246.1 199.5 244.7 199.5H238.6C237.3 199.5 236.3 198.7 235.8 197.3L226.5 167H226.4L217.2 197C216.5 199.1 215.8 199.6 214.2 199.6H208.4C207 199.6 206.2 199.1 205.5 196.9L191.1 150.3C191 149.9 191 149.6 191 149.3C191 148.3 191.6 148 192.5 148H201.7C203.4 148 204.2 148.9 204.5 150.1L212.5 180.4H212.6L221.4 149.7C221.7 148.5 222.7 147.9 223.8 147.9H230.1C231.4 147.9 232.2 148.6 232.5 149.6L241.4 180.2H241.5L249.2 149.7C249.6 148.4 250.6 147.8 251.7 147.8H260.1C260.9 147.8 261.3 148.4 261.3 149.1C261.2 149.5 261.2 149.8 261.2 150Z" fill="#FDB913"/>
	<path d="M279.5 200.5C266.9 200.5 261.1 192.4 261.1 181.3C261.1 170.4 268 162.3 280.1 162.3C292.7 162.3 298.5 170.4 298.5 181.5C298.4 192.4 291.5 200.5 279.5 200.5ZM279.8 171C274.3 171 272.5 175.8 272.5 181.2C272.5 186.7 274.1 191.7 279.6 191.7C285.1 191.7 286.9 186.8 286.9 181.4C286.9 175.9 285.3 171 279.8 171Z" fill="#FDB913"/>
	<path d="M314.3 199.5H307.1C306 199.5 305.1 198.9 305.1 197.5V149.2C305.1 147.7 305.8 147.3 306.9 147.1L314 146.1C314.1 146.1 314.2 146.1 314.3 146.1C314.4 146.1 314.6 146.1 314.7 146.1C315.7 146.1 316.3 146.8 316.3 148V197.4C316.3 198.9 315.5 199.5 314.3 199.5Z" fill="#FDB913"/>
	<path d="M357.8 165.5L344.3 198C343.8 199.3 343.2 199.6 341.8 199.6H337.4C336.1 199.6 335.3 199.4 334.8 198.1L321.5 165.1C321.4 164.8 321.4 164.6 321.4 164.4C321.4 163.8 321.8 163.4 323 163.4H331.6C333 163.4 333.7 164.1 334.1 165.3L338.8 180.4C339.3 182 339.9 184.2 340.3 185.8H340.4C340.8 184.5 341.4 182.2 341.9 180.6L346.9 165.4C347.4 163.9 348 163.5 349.7 163.5H356.5C357.6 163.5 358.3 163.9 358.3 164.8C358 164.8 357.9 165.2 357.8 165.5Z" fill="#FDB913"/>
	<path d="M392.4 184.3H371.6C372.5 189 376.7 191.6 381.2 191.6C384.5 191.6 387.6 190.9 390.6 189.7C390.9 189.6 391.2 189.5 391.5 189.5C392.2 189.5 392.5 189.9 392.7 190.5C393 191.8 394.1 195.2 394.1 196.3C394.1 197.3 393.4 197.6 392.7 197.9C388.8 199.7 383.6 200.4 379.2 200.4C367.4 200.4 359.9 193.1 359.9 181.2C359.9 169.7 367.7 162.1 379.2 162.1C384 162.1 388 163.9 390.7 166.9C394.4 170.8 395.2 176 395.2 181.2V182.2C395.1 184 394.3 184.3 392.4 184.3ZM378.5 170.8C374.8 170.8 372.3 173.8 371.8 177.3H384.2C384.2 174.1 382.3 170.8 378.5 170.8Z" fill="#FDB913"/>
	<path d="M412.1 200.5C408.2 200.5 403.8 199.5 399.7 197.7C398.9 197.4 398.7 196.9 398.7 196.4C398.7 196.1 398.8 195.8 398.8 195.5L400.3 190.8C400.6 189.8 400.9 189.5 401.4 189.5C401.7 189.5 402.1 189.6 402.6 189.8C406.2 191.3 409.7 192.1 412.4 192.1C414.8 192.1 416.4 191.1 416.4 189.5C416.4 188.1 415.7 187.3 412.9 186.3L406.3 183.8C402.3 182.3 398.7 178.7 398.7 173.4C398.7 165.4 406.3 162.2 412.9 162.2C416.8 162.2 420.6 162.8 424.6 164.6C425.3 164.9 425.6 165.3 425.6 165.9C425.6 166.1 425.5 166.4 425.5 166.7L423.9 171.9C423.8 172.5 423.2 172.8 422.6 172.8C422.4 172.8 422.1 172.7 421.8 172.7C419 171.7 415.9 170.9 413.5 170.9C411 170.9 409.9 172.2 409.9 173.3C409.9 174.2 410.2 175.2 412.7 176.1L420.2 179.1C424 180.6 426.9 183.7 426.9 188.7C427 197.2 419.4 200.5 412.1 200.5Z" fill="#FDB913"/>
	<path d="M451.4 148.9C451.3 149.6 450.8 149.8 450.1 149.8H443.6V169.8C443.6 170.6 443.5 170.8 442.7 170.8H438.5C437.7 170.8 437.6 170.7 437.6 169.9V149.9H430.8C430.1 149.9 429.8 149.5 429.8 148.8V146C429.8 145.4 430.1 145.1 430.8 145.1H448.9H450.8C451.5 145.1 451.7 145.4 451.7 145.9V146L451.4 148.9Z" fill="white"/>
	<path d="M476.4 146.1L467.5 170C467.3 170.5 466.8 170.9 466.2 170.9H463.2C462.4 170.9 462 170.5 461.7 169.9L452.3 146.3C452.2 146.2 452.2 146 452.2 145.9C452.2 145.5 452.6 145.2 453 145.2H457.2C458 145.2 458.5 145.5 458.7 146L464.9 163H465L470.7 146C470.9 145.3 471.3 145 472.3 145H475.6C476.1 145 476.4 145.3 476.4 145.6C476.5 145.8 476.5 146 476.4 146.1Z" fill="white"/>
</svg>
