<svg class="{{className}}" aria-hidden="{{ariaHidden}}" height="512" viewBox="0 0 512 512" width="512" xmlns="http://www.w3.org/2000/svg">
	<path d="m5.858 354.142c-5.357-5.357-7.227-13.28-4.832-20.467l22.069-66.208c-15.136-26.984-23.094-57.026-23.094-87.467 0-99.252 80.748-180 180-180s180 80.748 180 180-80.748 180-180 180c-30.441 0-60.482-7.958-87.466-23.095l-66.21 22.069c-7.141 2.381-15.076.56-20.467-4.832zm99.716-56.014c22.654 14.309 48.39 21.872 74.427 21.872 77.196 0 140-62.804 140-140s-62.804-140-140-140-140 62.804-140 140c0 26.036 7.563 51.773 21.873 74.43 3.203 5.072 3.961 11.313 2.064 17.004l-12.314 36.943 36.946-12.315c5.673-1.89 11.917-1.147 17.004 2.066z"/>
	<path d="m485.676 510.974-56.891-18.963c-23.735 13.105-50.085 19.989-76.784 19.989-64.42 0-122.275-38.333-147.395-97.659-4.307-10.172.447-21.908 10.619-26.215 10.169-4.306 21.908.447 26.215 10.619 18.842 44.501 62.24 73.255 110.561 73.255 22.306 0 44.363-6.485 63.788-18.753 5.072-3.204 11.314-3.96 17.004-2.064l27.586 9.195-9.194-27.586c-1.896-5.691-1.14-11.932 2.063-17.004 12.269-19.425 18.753-41.482 18.753-63.788 0-48.32-28.754-91.718-73.255-110.561-10.172-4.307-14.926-16.044-10.619-26.215 4.307-10.172 16.046-14.925 26.215-10.619 59.326 25.12 97.659 82.975 97.659 147.395 0 26.699-6.885 53.05-19.988 76.785l18.962 56.891c2.396 7.187.525 15.11-4.832 20.466-5.375 5.375-13.306 7.22-20.467 4.832z"/>
	<circle class="{{hintClassName}}" cx="100.001" cy="180" r="20"/>
	<circle class="{{hintClassName}}" cx="180.001" cy="180" r="20"/>
	<circle class="{{hintClassName}}" cx="260.001" cy="180" r="20"/>
</svg>
