<svg aria-hidden="true" class="{{className}}" width="45" height="45" viewBox="0 0 45 45" fill="none" xmlns="http://www.w3.org/2000/svg">
	<path class="{{classCircle}}" d="M44.5 22.5C44.5 34.6503 34.6503 44.5 22.5 44.5C10.3497 44.5 0.5 34.6503 0.5 22.5C0.5 10.3497 10.3497 0.5 22.5 0.5C34.6503 0.5 44.5 10.3497 44.5 22.5Z" />
	<path class="{{classIcon}}" d="M34.5264 19.1914C34.7168 19.04 35 19.1816 35 19.4209V29.4062C35 30.7002 33.9502 31.75 32.6562 31.75H12.3438C11.0498 31.75 10 30.7002 10 29.4062V19.4258C10 19.1816 10.2783 19.0449 10.4736 19.1963C11.5674 20.0459 13.0176 21.125 17.998 24.7432C19.0283 25.4951 20.7666 27.0771 22.5 27.0674C24.2432 27.082 26.0156 25.4658 27.0068 24.7432C31.9873 21.125 33.4326 20.041 34.5264 19.1914ZM22.5 25.5C23.6328 25.5195 25.2637 24.0742 26.084 23.4785C32.5635 18.7764 33.0566 18.3662 34.5508 17.1943C34.834 16.9746 35 16.6328 35 16.2715V15.3438C35 14.0498 33.9502 13 32.6562 13H12.3438C11.0498 13 10 14.0498 10 15.3438V16.2715C10 16.6328 10.166 16.9697 10.4492 17.1943C11.9434 18.3613 12.4365 18.7764 18.916 23.4785C19.7363 24.0742 21.3672 25.5195 22.5 25.5Z" />
</svg>
