<svg aria-hidden="true" class="{{className}}" width="45" height="45" viewBox="0 0 45 45" fill="none" xmlns="http://www.w3.org/2000/svg">
	<path class="{{classCircle}}" d="M44.5 22.5C44.5 34.6503 34.6503 44.5 22.5 44.5C10.3497 44.5 0.5 34.6503 0.5 22.5C0.5 10.3497 10.3497 0.5 22.5 0.5C34.6503 0.5 44.5 10.3497 44.5 22.5Z"/>
	<path class="{{classIcon}}" d="M16.8965 31.8745H12.3613V17.27H16.8965V31.8745ZM14.6265 15.2778C13.1763 15.2778 12 14.0767 12 12.6265C12 11.9299 12.2767 11.2618 12.7693 10.7693C13.2618 10.2767 13.9299 10 14.6265 10C15.323 10 15.9911 10.2767 16.4837 10.7693C16.9762 11.2618 17.2529 11.9299 17.2529 12.6265C17.2529 14.0767 16.0762 15.2778 14.6265 15.2778ZM33.8701 31.8745H29.3447V24.7651C29.3447 23.0708 29.3105 20.8979 26.9868 20.8979C24.6289 20.8979 24.2676 22.7388 24.2676 24.6431V31.8745H19.7373V17.27H24.0869V19.2622H24.1504C24.7559 18.1147 26.2349 16.9038 28.4414 16.9038C33.0312 16.9038 33.875 19.9263 33.875 23.8521V31.8745H33.8701Z" />
</svg>
