<svg xmlns="http://www.w3.org/2000/svg" xmlns:xlink="http://www.w3.org/1999/xlink" version="1.1" id="Layer_1" x="0px" y="0px" viewBox="0 0 700 140" style="enable-background:new 0 0 700 140;" xml:space="preserve">
	<style type="text/css">
		.st0{fill:#FED636;}
		.st1{fill:#fff;}
	</style>
	<path class="st1" d="M412.5,58.8h11.7c0.4,0,0.6,0.2,0.6,0.5v3c0,0.4-0.2,0.5-0.6,0.5h-15.7c-0.3,0-0.5-0.2-0.5-0.5V37.2  c0-0.4,0.2-0.5,0.5-0.5h15.1c0.4,0,0.6,0.2,0.6,0.5v3c0,0.3-0.2,0.5-0.6,0.5h-11.2v6.8h10.3c0.4,0,0.5,0.2,0.5,0.5V51  c0,0.4-0.2,0.5-0.5,0.5h-10.3V58.8z"/>
	<path class="st1" d="M433.3,55.5c0,1.4,0.4,2.4,1.1,3.1c0.7,0.6,1.7,1,3.1,1c0.7,0,1.4-0.1,2-0.3c0.6-0.2,1.1-0.4,1.6-0.7V47.7  c-0.4-0.2-1-0.3-1.6-0.4c-0.6-0.1-1.2-0.1-1.9-0.1c-1.3,0-2.3,0.3-3.1,0.9c-0.7,0.6-1.1,1.7-1.1,3.3V55.5z M429,51.5  c0-1.4,0.2-2.6,0.6-3.6c0.4-1,1-1.8,1.8-2.5c0.8-0.7,1.6-1.1,2.7-1.5c1-0.3,2.1-0.5,3.3-0.5c1.2,0,2.5,0.1,3.8,0.3  c1.3,0.2,2.5,0.5,3.6,1c0.3,0.1,0.4,0.4,0.4,0.6v23.9c0,0.4-0.2,0.5-0.5,0.5h-3.1c-0.4,0-0.5-0.2-0.5-0.5v-6.8  c-0.6,0.2-1.2,0.4-1.8,0.6c-0.6,0.1-1.3,0.2-2.1,0.2c-1.2,0-2.2-0.2-3.2-0.5c-1-0.4-1.8-0.9-2.5-1.6c-0.7-0.7-1.3-1.5-1.7-2.5  c-0.4-1-0.6-2-0.6-3.2V51.5z"/>
	<path class="st1" d="M465.9,43.9c0.4,0,0.5,0.2,0.5,0.5v16.8c0,0.3-0.1,0.5-0.4,0.7c-1,0.5-2.2,0.8-3.4,1.1  c-1.2,0.3-2.5,0.4-3.8,0.4c-1.2,0-2.4-0.2-3.4-0.5c-1-0.3-1.9-0.8-2.7-1.5c-0.7-0.7-1.3-1.5-1.7-2.6c-0.4-1-0.6-2.3-0.6-3.8V44.4  c0-0.3,0.2-0.5,0.5-0.5h3.2c0.3,0,0.5,0.2,0.5,0.5V55c0,0.9,0.1,1.6,0.3,2.2c0.2,0.6,0.5,1,0.8,1.4c0.4,0.3,0.8,0.6,1.3,0.7  c0.5,0.1,1.1,0.2,1.8,0.2c0.6,0,1.2,0,1.8-0.1c0.6-0.1,1.1-0.2,1.5-0.3V44.4c0-0.3,0.2-0.5,0.5-0.5H465.9z"/>
	<path class="st1" d="M475.5,55.5c0,1.5,0.3,2.5,0.8,3.1c0.5,0.6,1.4,0.9,2.7,0.9c0.6,0,1.3-0.2,2.1-0.5c0.8-0.3,1.4-0.8,2-1.4v-10  c-0.5-0.1-1-0.2-1.7-0.3c-0.6-0.1-1.2-0.1-1.8-0.1c-0.5,0-1,0.1-1.5,0.2c-0.5,0.2-0.9,0.4-1.3,0.7c-0.4,0.3-0.7,0.7-0.9,1.2  c-0.2,0.5-0.3,1.1-0.3,1.8V55.5z M483.5,60.9c-0.6,0.8-1.4,1.3-2.4,1.7c-0.9,0.4-1.9,0.6-2.9,0.6c-0.9,0-1.8-0.1-2.7-0.4  c-0.8-0.3-1.6-0.8-2.2-1.4c-0.6-0.6-1.2-1.4-1.5-2.4c-0.4-1-0.6-2.2-0.6-3.6v-4.2c0-1.3,0.2-2.5,0.7-3.5c0.5-1,1.1-1.8,1.8-2.4  c0.8-0.6,1.7-1.1,2.7-1.4c1-0.3,2.1-0.5,3.2-0.5c1.2,0,2.4,0.1,3.6,0.3c1.2,0.2,2.4,0.5,3.6,1c0.3,0.1,0.4,0.3,0.4,0.6v17  c0,0.4-0.2,0.5-0.5,0.5h-2.5c-0.3,0-0.5-0.2-0.6-0.5L483.5,60.9z"/>
	<path class="st1" d="M500.8,63.2c-0.6,0.1-1.3,0.1-2.1,0.1c-2,0-3.5-0.6-4.5-1.9c-1-1.2-1.6-3-1.6-5.2v-19c0-0.4,0.2-0.5,0.5-0.5  h3.1c0.4,0,0.5,0.2,0.5,0.5V56c0,1.2,0.2,2.1,0.6,2.6c0.4,0.5,1,0.8,1.8,0.8c0.2,0,0.4,0,0.7,0c0.2,0,0.5,0,0.7-0.1  c0.4,0,0.5,0.2,0.5,0.5v2.7c0,0.1,0,0.3-0.1,0.4C501.1,63.1,501,63.2,500.8,63.2"/>
	<path class="st1" d="M505.3,62.9c-0.4,0-0.5-0.2-0.5-0.5V44.4c0-0.3,0.2-0.5,0.5-0.5h3.2c0.3,0,0.5,0.2,0.5,0.5v17.9  c0,0.4-0.2,0.5-0.5,0.5H505.3z M509.3,38.9c0,0.7-0.2,1.3-0.7,1.7c-0.4,0.5-1,0.7-1.7,0.7c-0.7,0-1.3-0.2-1.7-0.7  c-0.5-0.5-0.7-1-0.7-1.7c0-0.7,0.2-1.3,0.7-1.7c0.5-0.4,1-0.7,1.7-0.7c0.7,0,1.3,0.2,1.7,0.7C509,37.6,509.3,38.2,509.3,38.9"/>
	<path class="st1" d="M519.3,58.6c0.5,0.5,1.2,0.8,2.1,0.8c0.2,0,0.4,0,0.7,0s0.6,0,0.8-0.1c0.4,0,0.6,0.2,0.6,0.5v2.8  c0,0.1,0,0.3-0.1,0.4c-0.1,0.1-0.2,0.2-0.4,0.2c-0.3,0-0.7,0-1,0.1c-0.4,0-0.7,0-0.9,0c-1,0-1.8-0.1-2.7-0.4  c-0.8-0.3-1.5-0.7-2.1-1.2c-0.6-0.5-1.1-1.2-1.4-2.1c-0.4-0.9-0.5-1.9-0.5-3.1V39.8c0-0.3,0.2-0.5,0.5-0.5h2.8  c0.3,0,0.5,0.2,0.5,0.5l0.3,4.4h3.9c0.4,0,0.5,0.2,0.5,0.5v2.7c0,0.3-0.2,0.5-0.5,0.5h-3.9v8.4C518.6,57.3,518.8,58,519.3,58.6"/>
	<path class="st1" d="M539,44.4c0-0.3,0.2-0.5,0.5-0.5h3.1c0.4,0,0.5,0.2,0.5,0.5v17.2c0,2.8-0.7,5-2,6.4c-1.3,1.4-3.4,2.1-6.2,2.1  c-1.6,0-2.9-0.2-4-0.6c-1.1-0.4-2.2-1-3.1-1.7c-0.3-0.2-0.3-0.4-0.1-0.7l1.6-2.2c0.2-0.3,0.4-0.4,0.7-0.2c0.7,0.5,1.5,0.9,2.3,1.2  c0.8,0.3,1.7,0.5,2.7,0.5c0.6,0,1.2-0.1,1.7-0.2c0.5-0.1,0.9-0.4,1.3-0.8c0.3-0.4,0.6-0.9,0.8-1.5c0.2-0.6,0.2-1.4,0.2-2.3  c-0.6,0.2-1.2,0.4-1.9,0.5c-0.7,0.1-1.3,0.2-2,0.2c-1,0-1.9-0.2-2.8-0.5c-0.9-0.3-1.8-0.8-2.5-1.4c-0.7-0.6-1.3-1.4-1.8-2.3  c-0.5-0.9-0.7-2-0.7-3.3V44.4c0-0.3,0.2-0.5,0.5-0.5h3.2c0.3,0,0.5,0.2,0.5,0.5v10.2c0,0.7,0.1,1.3,0.3,1.8c0.2,0.5,0.5,0.9,0.9,1.2  c0.4,0.3,0.8,0.5,1.3,0.6c0.5,0.1,1,0.2,1.6,0.2c0.6,0,1.2,0,1.8-0.2c0.6-0.1,1.1-0.3,1.5-0.5V44.4z"/>
	<path class="st1" d="M566.5,40.1c-0.4-0.1-1-0.1-1.6-0.1c-1,0-1.7,0.3-2.2,0.9c-0.5,0.6-0.8,1.4-0.8,2.5v0.8h4.2  c0.4,0,0.5,0.2,0.5,0.5v2.6c0,0.4-0.2,0.5-0.5,0.5h-4.2v14.4c0,0.4-0.2,0.5-0.5,0.5h-3.1c-0.4,0-0.5-0.2-0.5-0.5v-19  c0-1.2,0.2-2.2,0.5-3.1c0.3-0.9,0.8-1.6,1.4-2.2c0.6-0.6,1.3-1,2.1-1.3c0.8-0.3,1.6-0.4,2.5-0.4c0.9,0,1.7,0,2.2,0.1  c0.3,0,0.5,0.2,0.5,0.6v2.5C566.9,39.9,566.8,40.1,566.5,40.1"/>
	<path class="st1" d="M574.1,55.9c0,1.2,0.3,2.1,1,2.7c0.7,0.6,1.7,0.9,3,0.9c1.3,0,2.3-0.3,3-0.9c0.7-0.6,1-1.5,1-2.7V51  c0-1.2-0.3-2.1-1-2.8c-0.7-0.6-1.7-1-3-1c-1.3,0-2.3,0.3-3,1c-0.7,0.6-1,1.6-1,2.8V55.9z M586.5,55.9c0,1.1-0.2,2.2-0.6,3.1  c-0.4,0.9-1,1.7-1.7,2.3c-0.7,0.6-1.6,1.1-2.6,1.5c-1,0.3-2.2,0.5-3.4,0.5c-1.3,0-2.4-0.2-3.4-0.5c-1-0.3-1.9-0.8-2.6-1.5  c-0.7-0.6-1.3-1.4-1.7-2.3c-0.4-0.9-0.6-1.9-0.6-3.1V51c0-1.1,0.2-2.2,0.6-3.1c0.4-0.9,1-1.7,1.7-2.4c0.7-0.7,1.6-1.2,2.6-1.5  c1-0.4,2.2-0.5,3.4-0.5c1.3,0,2.4,0.2,3.4,0.5c1,0.4,1.9,0.9,2.6,1.5c0.7,0.7,1.3,1.5,1.7,2.4c0.4,0.9,0.6,2,0.6,3.1V55.9z"/>
	<path class="st1" d="M591.9,62.9c-0.4,0-0.5-0.2-0.5-0.5V45.5c0-0.3,0.1-0.5,0.4-0.6c0.9-0.5,1.9-0.8,3.1-1c1.1-0.2,2.2-0.3,3.3-0.3  c0.6,0,1.1,0,1.8,0.1c0.6,0,1.3,0.1,2,0.2c0.3,0,0.5,0.2,0.5,0.5v2.6c0,0.4-0.2,0.5-0.6,0.4c-0.5-0.1-1-0.1-1.5-0.1  c-0.5,0-1,0-1.5,0c-0.7,0-1.3,0-1.8,0.1c-0.6,0.1-1,0.2-1.4,0.4v14.6c0,0.4-0.2,0.5-0.6,0.5H591.9z"/>
	<path class="st1" d="M411,96.3c0,1.6,0.4,2.7,1.1,3.3c0.7,0.6,1.8,1,3.1,1c0.6,0,1.3,0,1.9-0.1c0.6-0.1,1.1-0.2,1.6-0.4V89.2  c-0.4-0.3-1-0.5-1.6-0.7c-0.6-0.2-1.3-0.3-2-0.3c-1.3,0-2.3,0.3-3.1,0.9c-0.7,0.6-1.1,1.6-1.1,3V96.3z M418.6,78.3  c0-0.4,0.2-0.5,0.5-0.5h3.1c0.4,0,0.5,0.2,0.5,0.5v24.1c0,0.3-0.1,0.5-0.4,0.6c-1.1,0.4-2.3,0.7-3.6,1c-1.3,0.2-2.6,0.3-3.8,0.3  c-1.2,0-2.3-0.2-3.3-0.5c-1-0.3-1.9-0.8-2.7-1.5c-0.8-0.7-1.3-1.5-1.8-2.5c-0.4-1-0.6-2.2-0.6-3.6v-4c0-1.2,0.2-2.3,0.6-3.2  c0.4-1,1-1.8,1.7-2.4c0.7-0.7,1.5-1.2,2.5-1.6c1-0.4,2-0.5,3.2-0.5c0.7,0,1.4,0.1,2.1,0.2c0.7,0.1,1.3,0.3,1.8,0.6V78.3z"/>
	<path class="st1" d="M428.9,103.9c-0.4,0-0.5-0.2-0.5-0.5V85.5c0-0.3,0.2-0.5,0.5-0.5h3.2c0.3,0,0.5,0.2,0.5,0.5v17.9  c0,0.4-0.2,0.5-0.5,0.5H428.9z M432.8,80c0,0.7-0.2,1.3-0.7,1.7c-0.4,0.5-1,0.7-1.7,0.7c-0.7,0-1.3-0.2-1.7-0.7  c-0.5-0.5-0.7-1-0.7-1.7c0-0.7,0.2-1.3,0.7-1.7c0.5-0.4,1-0.7,1.7-0.7c0.7,0,1.3,0.2,1.7,0.7C432.6,78.7,432.8,79.3,432.8,80"/>
	<path class="st1" d="M452.3,98.3c0,1-0.2,1.9-0.6,2.7c-0.4,0.8-1,1.4-1.6,1.9c-0.7,0.5-1.5,0.9-2.5,1.1c-0.9,0.2-2,0.4-3.1,0.4  c-1.2,0-2.5-0.2-3.8-0.5c-1.3-0.4-2.5-1-3.7-1.8c-0.3-0.2-0.3-0.4-0.1-0.7l1.4-2.4c0.2-0.3,0.4-0.4,0.7-0.1c0.8,0.6,1.7,1.1,2.7,1.4  c1,0.3,1.9,0.5,2.9,0.5c1,0,1.8-0.2,2.4-0.5c0.7-0.4,1-0.9,1-1.6c0-0.4-0.1-0.7-0.3-0.9c-0.2-0.2-0.5-0.4-0.8-0.6  c-0.3-0.2-0.7-0.3-1.1-0.4c-0.4-0.1-0.8-0.2-1.2-0.3c-0.7-0.1-1.5-0.3-2.3-0.5c-0.9-0.2-1.7-0.6-2.4-1c-0.8-0.5-1.4-1-1.9-1.8  c-0.5-0.7-0.8-1.6-0.8-2.7c0-1,0.2-1.9,0.7-2.6c0.4-0.7,1-1.3,1.8-1.8c0.7-0.5,1.6-0.8,2.5-1c0.9-0.2,1.9-0.3,2.9-0.3  c1,0,2.1,0.1,3.1,0.4c1,0.3,2.1,0.7,3.2,1.3c0.3,0.2,0.4,0.4,0.2,0.7l-1.4,2.3c-0.2,0.3-0.4,0.3-0.7,0.2c-0.7-0.4-1.4-0.7-2.2-0.9  c-0.8-0.2-1.6-0.3-2.4-0.3c-1.1,0-1.9,0.2-2.5,0.5c-0.6,0.4-0.8,0.9-0.8,1.5c0,0.4,0.1,0.7,0.3,0.9c0.2,0.3,0.5,0.5,0.8,0.6  c0.4,0.2,0.8,0.3,1.3,0.4c0.5,0.1,1.1,0.2,1.7,0.4c0.8,0.1,1.5,0.3,2.3,0.5c0.8,0.2,1.5,0.5,2.2,1c0.7,0.4,1.2,1,1.6,1.6  C452.1,96.4,452.3,97.2,452.3,98.3"/>
	<path class="st1" d="M460.3,96.6c0,1.5,0.3,2.5,0.8,3.1c0.5,0.6,1.4,0.9,2.7,0.9c0.6,0,1.3-0.2,2.1-0.5c0.8-0.3,1.4-0.8,2-1.4v-10  c-0.5-0.1-1-0.2-1.7-0.3c-0.6-0.1-1.2-0.1-1.8-0.1c-0.5,0-1,0.1-1.5,0.2c-0.5,0.2-0.9,0.4-1.3,0.7c-0.4,0.3-0.7,0.7-0.9,1.2  c-0.2,0.5-0.3,1.1-0.3,1.8V96.6z M468.3,102c-0.6,0.8-1.4,1.3-2.4,1.7c-0.9,0.4-1.9,0.6-2.9,0.6c-0.9,0-1.8-0.1-2.7-0.4  c-0.8-0.3-1.6-0.8-2.2-1.4c-0.6-0.6-1.2-1.4-1.5-2.4c-0.4-1-0.6-2.2-0.6-3.6v-4.2c0-1.3,0.2-2.5,0.7-3.5c0.5-1,1.1-1.8,1.8-2.4  c0.8-0.6,1.7-1.1,2.7-1.4c1-0.3,2.1-0.5,3.2-0.5c1.2,0,2.4,0.1,3.6,0.3c1.2,0.2,2.4,0.5,3.6,1c0.3,0.1,0.4,0.3,0.4,0.6v17  c0,0.4-0.2,0.5-0.5,0.5h-2.5c-0.3,0-0.5-0.2-0.6-0.5L468.3,102z"/>
	<path class="st1" d="M485.2,100.5c1.3,0,2.3-0.3,3.1-0.9c0.7-0.6,1.1-1.7,1.1-3.3v-4.1c0-1.4-0.4-2.4-1.1-3c-0.7-0.6-1.7-1-3.1-1  c-0.7,0-1.4,0.1-1.9,0.3c-0.6,0.2-1.1,0.4-1.6,0.7V100c0.4,0.2,1,0.3,1.6,0.4C483.9,100.5,484.5,100.5,485.2,100.5 M481.7,85.3  c0.6-0.2,1.2-0.4,1.8-0.6c0.7-0.1,1.4-0.2,2.1-0.2c1.1,0,2.2,0.2,3.2,0.5c1,0.4,1.8,0.9,2.5,1.6c0.7,0.7,1.3,1.5,1.7,2.4  c0.4,1,0.6,2,0.6,3.2v4c0,1.4-0.2,2.6-0.6,3.6c-0.4,1-1,1.8-1.8,2.5c-0.7,0.7-1.6,1.1-2.7,1.5c-1,0.3-2.2,0.5-3.3,0.5  c-1.2,0-2.4-0.1-3.8-0.3c-1.3-0.2-2.5-0.6-3.6-1c-0.3-0.1-0.4-0.3-0.4-0.6V78.3c0-0.4,0.2-0.5,0.5-0.5h3.1c0.4,0,0.5,0.2,0.5,0.5  V85.3z"/>
	<path class="st1" d="M506.6,104.2c-0.6,0.1-1.3,0.1-2.1,0.1c-2,0-3.5-0.6-4.5-1.9c-1-1.2-1.6-3-1.6-5.2v-19c0-0.4,0.2-0.5,0.5-0.5  h3.1c0.4,0,0.5,0.2,0.5,0.5v18.8c0,1.2,0.2,2.1,0.6,2.6c0.4,0.5,1,0.8,1.8,0.8c0.2,0,0.4,0,0.7,0c0.2,0,0.5,0,0.7-0.1  c0.4,0,0.5,0.2,0.5,0.5v2.7c0,0.1,0,0.3-0.1,0.4C506.9,104.1,506.8,104.2,506.6,104.2"/>
	<path class="st1" d="M521.7,92c0-1.3-0.4-2.3-1.1-2.9c-0.7-0.6-1.6-0.9-2.7-0.9c-1.1,0-2,0.3-2.7,0.9c-0.7,0.6-1.1,1.5-1.1,2.9v1  h7.5V92z M525.9,95.7c0,0.3-0.2,0.5-0.5,0.5h-11.1v1c0,1.1,0.4,2,1.1,2.5c0.7,0.6,1.6,0.8,2.8,0.8c1.1,0,2.1-0.2,2.9-0.5  c0.8-0.3,1.5-0.7,2.2-1.2c0.3-0.2,0.5-0.2,0.7,0.1l1.5,2c0.2,0.3,0.2,0.5-0.1,0.8c-1,0.8-2.1,1.4-3.3,1.8c-1.2,0.5-2.6,0.7-4.2,0.7  c-1,0-2-0.1-3-0.4c-1-0.3-1.8-0.7-2.6-1.3c-0.7-0.6-1.3-1.3-1.8-2.2c-0.5-0.9-0.7-1.9-0.7-3.2V92c0-1.3,0.2-2.5,0.7-3.4  c0.5-1,1.1-1.7,1.8-2.3c0.8-0.6,1.6-1,2.6-1.3c1-0.3,1.9-0.4,2.9-0.4c1,0,2,0.1,2.9,0.4c0.9,0.3,1.8,0.7,2.5,1.3  c0.7,0.6,1.3,1.4,1.8,2.3c0.5,1,0.7,2.1,0.7,3.4V95.7z"/>
	<path class="st1" d="M534.2,96.3c0,1.6,0.4,2.7,1.1,3.3c0.7,0.6,1.8,1,3.1,1c0.6,0,1.3,0,1.9-0.1c0.6-0.1,1.1-0.2,1.6-0.4V89.2  c-0.4-0.3-1-0.5-1.6-0.7c-0.6-0.2-1.3-0.3-2-0.3c-1.3,0-2.3,0.3-3.1,0.9c-0.7,0.6-1.1,1.6-1.1,3V96.3z M541.8,78.3  c0-0.4,0.2-0.5,0.5-0.5h3.1c0.4,0,0.5,0.2,0.5,0.5v24.1c0,0.3-0.1,0.5-0.4,0.6c-1.1,0.4-2.3,0.7-3.6,1c-1.3,0.2-2.6,0.3-3.8,0.3  c-1.2,0-2.3-0.2-3.3-0.5c-1-0.3-1.9-0.8-2.7-1.5c-0.8-0.7-1.3-1.5-1.8-2.5c-0.4-1-0.6-2.2-0.6-3.6v-4c0-1.2,0.2-2.3,0.6-3.2  c0.4-1,1-1.8,1.7-2.4c0.7-0.7,1.5-1.2,2.5-1.6c1-0.4,2-0.5,3.2-0.5c0.7,0,1.4,0.1,2.1,0.2c0.7,0.1,1.3,0.3,1.8,0.6V78.3z"/>
	<path class="st1" d="M568,100.6c1.3,0,2.3-0.3,3.1-1c0.7-0.6,1.1-1.7,1.1-3.1v-4.1c0-1.6-0.4-2.7-1.1-3.3c-0.7-0.6-1.8-0.9-3.1-0.9  c-0.6,0-1.3,0-1.9,0.1c-0.6,0.1-1.1,0.2-1.6,0.4v10.8c0.5,0.3,1,0.6,1.6,0.7C566.7,100.5,567.3,100.6,568,100.6 M560.7,85.8  c1.1-0.4,2.3-0.7,3.6-1c1.3-0.2,2.6-0.3,3.8-0.3c1.2,0,2.3,0.2,3.3,0.5c1,0.3,1.9,0.8,2.7,1.5c0.7,0.7,1.3,1.5,1.8,2.5  c0.4,1,0.6,2.2,0.6,3.6v4c0,1.2-0.2,2.3-0.6,3.2c-0.4,1-1,1.8-1.7,2.5c-0.7,0.7-1.6,1.2-2.6,1.6c-1,0.4-2.1,0.5-3.2,0.5  c-0.7,0-1.4-0.1-2.1-0.2c-0.6-0.1-1.3-0.3-1.8-0.6v6.8c0,0.4-0.2,0.5-0.5,0.5h-3.1c-0.4,0-0.5-0.2-0.5-0.5V86.4  C560.3,86.1,560.4,85.9,560.7,85.8"/>
	<path class="st1" d="M592.5,92c0-1.3-0.4-2.3-1.1-2.9c-0.7-0.6-1.6-0.9-2.7-0.9c-1.1,0-2,0.3-2.7,0.9c-0.7,0.6-1.1,1.5-1.1,2.9v1  h7.5V92z M596.7,95.7c0,0.3-0.2,0.5-0.5,0.5H585v1c0,1.1,0.4,2,1.1,2.5s1.6,0.8,2.8,0.8c1.1,0,2.1-0.2,2.9-0.5  c0.8-0.3,1.5-0.7,2.2-1.2c0.3-0.2,0.5-0.2,0.7,0.1l1.5,2c0.2,0.3,0.2,0.5-0.1,0.8c-1,0.8-2.1,1.4-3.3,1.8c-1.2,0.5-2.6,0.7-4.2,0.7  c-1,0-2-0.1-3-0.4c-1-0.3-1.8-0.7-2.6-1.3c-0.7-0.6-1.3-1.3-1.8-2.2c-0.5-0.9-0.7-1.9-0.7-3.2V92c0-1.3,0.2-2.5,0.7-3.4  c0.5-1,1.1-1.7,1.8-2.3c0.8-0.6,1.6-1,2.6-1.3c1-0.3,1.9-0.4,2.9-0.4c1,0,2,0.1,2.9,0.4c0.9,0.3,1.8,0.7,2.5,1.3  c0.7,0.6,1.3,1.4,1.8,2.3c0.5,1,0.7,2.1,0.7,3.4V95.7z"/>
	<path class="st1" d="M605,97c0,1.2,0.3,2.1,1,2.7c0.7,0.6,1.7,0.9,3,0.9c1.3,0,2.3-0.3,3-0.9c0.7-0.6,1-1.5,1-2.7v-4.9  c0-1.2-0.3-2.1-1-2.8c-0.7-0.6-1.7-1-3-1c-1.3,0-2.3,0.3-3,1c-0.7,0.6-1,1.6-1,2.8V97z M617.4,97c0,1.1-0.2,2.2-0.6,3.1  c-0.4,0.9-1,1.7-1.7,2.3c-0.7,0.6-1.6,1.1-2.6,1.5c-1,0.3-2.2,0.5-3.4,0.5c-1.3,0-2.4-0.2-3.4-0.5c-1-0.3-1.9-0.8-2.6-1.5  c-0.7-0.6-1.3-1.4-1.7-2.3c-0.4-0.9-0.6-1.9-0.6-3.1v-4.9c0-1.1,0.2-2.2,0.6-3.1c0.4-0.9,1-1.7,1.7-2.4c0.7-0.7,1.6-1.2,2.6-1.5  c1-0.4,2.2-0.5,3.4-0.5c1.3,0,2.4,0.2,3.4,0.5c1,0.4,1.9,0.9,2.6,1.5c0.7,0.7,1.3,1.5,1.7,2.4c0.4,0.9,0.6,2,0.6,3.1V97z"/>
	<path class="st1" d="M630,100.6c1.3,0,2.3-0.3,3.1-1c0.7-0.6,1.1-1.7,1.1-3.1v-4.1c0-1.6-0.4-2.7-1.1-3.3c-0.7-0.6-1.8-0.9-3.1-0.9  c-0.6,0-1.3,0-1.9,0.1c-0.6,0.1-1.1,0.2-1.6,0.4v10.8c0.5,0.3,1,0.6,1.6,0.7C628.7,100.5,629.3,100.6,630,100.6 M622.7,85.8  c1.1-0.4,2.3-0.7,3.6-1c1.3-0.2,2.6-0.3,3.8-0.3c1.2,0,2.3,0.2,3.3,0.5c1,0.3,1.9,0.8,2.7,1.5c0.7,0.7,1.3,1.5,1.8,2.5  c0.4,1,0.6,2.2,0.6,3.6v4c0,1.2-0.2,2.3-0.6,3.2c-0.4,1-1,1.8-1.7,2.5c-0.7,0.7-1.6,1.2-2.6,1.6c-1,0.4-2.1,0.5-3.2,0.5  c-0.7,0-1.4-0.1-2.1-0.2c-0.6-0.1-1.3-0.3-1.8-0.6v6.8c0,0.4-0.2,0.5-0.5,0.5h-3.1c-0.4,0-0.5-0.2-0.5-0.5V86.4  C622.3,86.1,622.4,85.9,622.7,85.8"/>
	<path class="st1" d="M651.4,104.2c-0.6,0.1-1.3,0.1-2.1,0.1c-2,0-3.5-0.6-4.5-1.9c-1-1.2-1.6-3-1.6-5.2v-19c0-0.4,0.2-0.5,0.5-0.5  h3.1c0.4,0,0.5,0.2,0.5,0.5v18.8c0,1.2,0.2,2.1,0.6,2.6c0.4,0.5,1,0.8,1.8,0.8c0.2,0,0.4,0,0.7,0c0.2,0,0.5,0,0.7-0.1  c0.4,0,0.5,0.2,0.5,0.5v2.7c0,0.1,0,0.3-0.1,0.4C651.6,104.1,651.5,104.2,651.4,104.2"/>
	<path class="st1" d="M666.5,92c0-1.3-0.4-2.3-1.1-2.9c-0.7-0.6-1.6-0.9-2.7-0.9c-1.1,0-2,0.3-2.7,0.9c-0.7,0.6-1.1,1.5-1.1,2.9v1  h7.5V92z M670.6,95.7c0,0.3-0.2,0.5-0.5,0.5H659v1c0,1.1,0.4,2,1.1,2.5c0.7,0.6,1.6,0.8,2.8,0.8c1.1,0,2.1-0.2,2.9-0.5  c0.8-0.3,1.5-0.7,2.2-1.2c0.3-0.2,0.5-0.2,0.7,0.1l1.5,2c0.2,0.3,0.2,0.5-0.1,0.8c-1,0.8-2.1,1.4-3.3,1.8c-1.2,0.5-2.6,0.7-4.2,0.7  c-1,0-2-0.1-3-0.4c-1-0.3-1.8-0.7-2.6-1.3c-0.7-0.6-1.3-1.3-1.8-2.2c-0.5-0.9-0.7-1.9-0.7-3.2V92c0-1.3,0.2-2.5,0.7-3.4  c0.5-1,1.1-1.7,1.8-2.3c0.8-0.6,1.6-1,2.6-1.3c1-0.3,1.9-0.4,2.9-0.4c1,0,2,0.1,2.9,0.4c1,0.3,1.8,0.7,2.5,1.3  c0.7,0.6,1.3,1.4,1.8,2.3c0.5,1,0.7,2.1,0.7,3.4V95.7z"/>
	<path class="st1" d="M188.3,45.9v56.2c0,1.1,0.6,1.7,1.6,1.7h11.8c1,0,1.6-0.6,1.6-1.7V84.2h11.5c14.9,0,24.1-9.1,24.1-23.9  c0-14.4-9-23.8-24.1-23.8h-17.2C191.6,36.5,188.3,39.7,188.3,45.9 M203.3,70.2V50.5h9.4c7,0,10.6,3.3,10.6,9.9  c0,6.6-3.6,9.9-10.6,9.9H203.3z M147.8,49.6c8,0,11.9,4.2,11.9,12.6V78c0,8.4-3.9,12.6-11.9,12.6c-8,0-11.9-4.2-11.9-12.6V62.2  C135.8,53.9,139.8,49.6,147.8,49.6 M147.8,104.9c17.3,0,27.4-9.8,27.4-26.6V61.9c0-16.8-10.1-26.6-27.4-26.6  c-17.3,0-27.4,9.8-27.4,26.6v16.4C120.4,95.1,130.5,104.9,147.8,104.9 M381.9,63.4c1,0,1.6-0.6,1.6-1.6V51.7c0-1-0.6-1.6-1.6-1.6  h-45.3c-1,0-1.6,0.6-1.6,1.6v10.2c0,1,0.6,1.6,1.6,1.6H381.9z M381.9,90.1c1,0,1.6-0.6,1.6-1.6V78.4c0-1-0.6-1.6-1.6-1.6h-45.3  c-1,0-1.6,0.6-1.6,1.6v10.2c0,1,0.6,1.6,1.6,1.6H381.9z M26.6,104.9c16.9,0,25.7-8.6,25.7-21.3c0-9.9-4.7-17.4-20.2-20  c-12.8-2.2-14.6-4.5-14.6-8.5c0-3,2.7-6.1,10.2-6.1c4.2,0,9.4,1.2,14.7,4c0.9,0.5,1.7,0.5,2.4-0.5l4.8-9.1c0.6-1,0.4-1.9-0.4-2.4  c-3.9-2.3-11.3-5.6-22.2-5.6C12.8,35.3,2,43.1,2,55.8c0,12.6,8.6,17.9,23.4,20.6C34.2,78,37,79.7,37,84.3c0,3.9-3.8,6.6-10.8,6.6  c-6.3,0-12.1-2-17.9-4.7c-0.9-0.5-1.8-0.5-2.3,0.5l-4.7,9c-0.5,0.9-0.7,1.7,0.4,2.3C5.8,100.8,15.1,104.9,26.6,104.9 M90,35.3  c-17.3,0-27.4,9.8-27.4,26.6v16.4c0,16.8,10.1,26.6,27.4,26.6c7.7,0,14.9-2.2,21.3-6.7c0.7-0.5,0.8-1.2,0.1-2.1l-6-9  c-0.6-0.9-1.3-1-2.3-0.4c-3.9,2.6-8.4,3.9-13.2,3.9c-7.7,0-11.6-4.2-11.6-12.6V62.2c0-8.4,3.9-12.6,11.6-12.6c4.3,0,8.7,1.2,12,3.4  c0.9,0.6,1.7,0.4,2.4-0.5l5.9-9c0.7-0.8,0.5-1.6-0.5-2.2C104.4,37.5,97.2,35.3,90,35.3 M250.2,94.5c0,6.1,3.3,9.3,9.3,9.3h33.8  c1.1,0,1.7-0.6,1.7-1.7V91.7c0-1-0.6-1.6-1.7-1.6h-27.9V76.8h23.3c1.1,0,1.7-0.6,1.7-1.6V65c0-1-0.6-1.6-1.7-1.6h-23.3V50.2h26.4  c1.1,0,1.7-0.6,1.7-1.6V38.2c0-1.1-0.6-1.7-1.7-1.7h-32.3c-6,0-9.3,3.2-9.3,9.3V94.5z"/>
</svg>
