<svg aria-hidden="true" class="{{className}}" width="45" height="45" viewBox="0 0 45 45" fill="none" xmlns="http://www.w3.org/2000/svg">
	<path class="{{classCircle}}" d="M44.5 22.5C44.5 34.6503 34.6503 44.5 22.5 44.5C10.3497 44.5 0.5 34.6503 0.5 22.5C0.5 10.3497 10.3497 0.5 22.5 0.5C34.6503 0.5 44.5 10.3497 44.5 22.5Z" />
	<path class="{{classIcon}}" d="M33.4302 18.0603C33.446 18.2823 33.446 18.5044 33.446 18.7265C33.446 25.5 28.2906 33.3045 18.868 33.3045C15.9651 33.3045 13.2684 32.4638 11 31.0044C11.4125 31.052 11.809 31.0679 12.2373 31.0679C14.6326 31.0679 16.8375 30.2589 18.5983 28.8788C16.3458 28.8312 14.4581 27.356 13.8077 25.3255C14.125 25.373 14.4422 25.4048 14.7754 25.4048C15.2354 25.4048 15.6955 25.3413 16.1237 25.2303C13.776 24.7544 12.0152 22.6922 12.0152 20.2018V20.1383C12.6973 20.519 13.4905 20.757 14.3312 20.7887C12.9511 19.8686 12.0469 18.2982 12.0469 16.5215C12.0469 15.5698 12.3007 14.6973 12.7449 13.9359C15.2671 17.045 19.0583 19.0754 23.3096 19.2976C23.2303 18.9168 23.1827 18.5203 23.1827 18.1237C23.1827 15.3001 25.4669 13 28.3064 13C29.7816 13 31.1141 13.6187 32.05 14.618C33.208 14.3959 34.3184 13.9676 35.302 13.3807C34.9212 14.5705 34.1122 15.5698 33.0494 16.2043C34.0805 16.0933 35.0799 15.8077 35.9999 15.4112C35.3021 16.4264 34.4295 17.3305 33.4302 18.0603V18.0603Z"/>
</svg>
