<svg xmlns="http://www.w3.org/2000/svg" xmlns:xlink="http://www.w3.org/1999/xlink" version="1.1" id="Isolation_Mode" x="0px" y="0px" viewBox="0 0 310 60.2" style="enable-background:new 0 0 310 60.2;" xml:space="preserve">
<style type="text/css">
	.st0{fill:#FDB913;}
	.st1{fill:#FFFFFF;}
</style>
<g>
	<g>
		<path class="st0" d="M72.5,7.3L58.8,54.5c-0.4,1.5-1.4,2.3-2.8,2.3h-6.1c-1.3,0-2.3-0.8-2.8-2.2l-9.3-30.3h-0.1l-9.2,30    c-0.7,2.1-1.4,2.6-3,2.6h-5.8c-1.4,0-2.2-0.5-2.9-2.7L2.4,7.6c-0.1-0.4-0.1-0.7-0.1-1c0-1,0.6-1.3,1.5-1.3H13    c1.7,0,2.5,0.9,2.8,2.1l8,30.3h0.1L32.7,7C33,5.8,34,5.2,35.1,5.2h6.3c1.3,0,2.1,0.7,2.4,1.7l8.9,30.6h0.1l7.7-30.5    c0.4-1.3,1.4-1.9,2.5-1.9h8.4c0.8,0,1.2,0.6,1.2,1.3C72.5,6.8,72.5,7.1,72.5,7.3z"/>
	</g>
	<g>
		<path class="st0" d="M90.8,57.8c-12.6,0-18.4-8.1-18.4-19.2c0-10.9,6.9-19,19-19c12.6,0,18.4,8.1,18.4,19.2    C109.7,49.7,102.8,57.8,90.8,57.8z M91.1,28.3c-5.5,0-7.3,4.8-7.3,10.2c0,5.5,1.6,10.5,7.1,10.5c5.5,0,7.3-4.9,7.3-10.3    C98.2,33.2,96.6,28.3,91.1,28.3z"/>
		<path class="st0" d="M125.6,56.8h-7.2c-1.1,0-2-0.6-2-2V6.5c0-1.5,0.7-1.9,1.8-2.1l7.1-1c0.1,0,0.2,0,0.3,0c0.1,0,0.3,0,0.4,0    c1,0,1.6,0.7,1.6,1.9v49.4C127.6,56.2,126.8,56.8,125.6,56.8z"/>
		<path class="st0" d="M169.1,22.8l-13.5,32.5c-0.5,1.3-1.1,1.6-2.5,1.6h-4.4c-1.3,0-2.1-0.2-2.6-1.5l-13.3-33    c-0.1-0.3-0.1-0.5-0.1-0.7c0-0.6,0.4-1,1.6-1h8.6c1.4,0,2.1,0.7,2.5,1.9l4.7,15.1c0.5,1.6,1.1,3.8,1.5,5.4h0.1    c0.4-1.3,1-3.6,1.5-5.2l5-15.2c0.5-1.5,1.1-1.9,2.8-1.9h6.8c1.1,0,1.8,0.4,1.8,1.3C169.3,22.1,169.2,22.5,169.1,22.8z"/>
	</g>
	<g>
		<path class="st0" d="M203.7,41.6h-20.8c0.9,4.7,5.1,7.3,9.6,7.3c3.3,0,6.4-0.7,9.4-1.9c0.3-0.1,0.6-0.2,0.9-0.2c0.7,0,1,0.4,1.2,1    c0.3,1.3,1.4,4.7,1.4,5.8c0,1-0.7,1.3-1.4,1.6c-3.9,1.8-9.1,2.5-13.5,2.5c-11.8,0-19.3-7.3-19.3-19.2c0-11.5,7.8-19.1,19.3-19.1    c4.8,0,8.8,1.8,11.5,4.8c3.7,3.9,4.5,9.1,4.5,14.3v1C206.4,41.3,205.6,41.6,203.7,41.6z M189.8,28.1c-3.7,0-6.2,3-6.7,6.5h12.4    C195.5,31.4,193.6,28.1,189.8,28.1z"/>
		<path class="st0" d="M223.4,57.8c-3.9,0-8.3-1-12.4-2.8c-0.8-0.3-1-0.8-1-1.3c0-0.3,0.1-0.6,0.1-0.9l1.5-4.7    c0.3-1,0.6-1.3,1.1-1.3c0.3,0,0.7,0.1,1.2,0.3c3.6,1.5,7.1,2.3,9.8,2.3c2.4,0,4-1,4-2.6c0-1.4-0.7-2.2-3.5-3.2l-6.6-2.5    c-4-1.5-7.6-5.1-7.6-10.4c0-8,7.6-11.2,14.2-11.2c3.9,0,7.7,0.6,11.7,2.4c0.7,0.3,1,0.7,1,1.3c0,0.2-0.1,0.5-0.1,0.8l-1.6,5.2    c-0.1,0.6-0.7,0.9-1.3,0.9c-0.2,0-0.5-0.1-0.8-0.1c-2.8-1-5.9-1.8-8.3-1.8c-2.5,0-3.6,1.3-3.6,2.4c0,0.9,0.3,1.9,2.8,2.8l7.5,3    c3.8,1.5,6.7,4.6,6.7,9.6C238.3,54.5,230.7,57.8,223.4,57.8z"/>
	</g>
	<g>
		<path class="st1" d="M262.7,6.2c-0.1,0.7-0.6,0.9-1.3,0.9h-6.5v20c0,0.8-0.1,1-0.9,1h-4.2c-0.8,0-0.9-0.1-0.9-0.9V7.2h-6.8    c-0.7,0-1-0.4-1-1.1V3.3c0-0.6,0.3-0.9,1-0.9h18.1h1.9c0.7,0,0.9,0.3,0.9,0.8c0,0,0,0.1,0,0.1L262.7,6.2z"/>
		<path class="st1" d="M287.7,3.4l-8.9,23.9c-0.2,0.5-0.7,0.9-1.3,0.9h-3c-0.8,0-1.2-0.4-1.5-1l-9.4-23.6c-0.1-0.1-0.1-0.3-0.1-0.4    c0-0.4,0.4-0.7,0.8-0.7h4.2c0.8,0,1.3,0.3,1.5,0.8l6.2,17h0.1L282,3.3c0.2-0.7,0.6-1,1.6-1h3.3c0.5,0,0.8,0.3,0.8,0.6    C287.8,3.1,287.8,3.3,287.7,3.4z"/>
	</g>
</g>
</svg>
